<svg width="24" height="24" viewBox="0 0 24 24" fill="none" xmlns="http://www.w3.org/2000/svg">
<path d="M6.34299 14.728L3.51499 17.557L7.04999 21.092L20.485 7.657L16.95 4.121L14.829 6.243L16.243 7.657L14.829 9.071L13.414 7.657L11.293 9.778L13.414 11.9L12 13.314L9.87999 11.193L7.75799 13.313L9.17299 14.728L7.75799 16.142L6.34299 14.728ZM17.657 2L22.607 6.95C22.7945 7.13753 22.8998 7.39184 22.8998 7.657C22.8998 7.92217 22.7945 8.17647 22.607 8.364L7.75699 23.214C7.56946 23.4015 7.31515 23.5068 7.04999 23.5068C6.78482 23.5068 6.53052 23.4015 6.34299 23.214L1.39299 18.264C1.30001 18.1711 1.22625 18.0608 1.17593 17.9394C1.1256 17.818 1.0997 17.6879 1.0997 17.5565C1.0997 17.4251 1.1256 17.295 1.17593 17.1736C1.22625 17.0522 1.30001 16.9419 1.39299 16.849L16.243 2C16.4305 1.81253 16.6848 1.70721 16.95 1.70721C17.2152 1.70721 17.4695 1.81253 17.657 2Z" fill="#8D62F1"/>
</svg>
