<svg width="20" height="20" viewBox="0 0 20 20" fill="none" xmlns="http://www.w3.org/2000/svg">
<path d="M3.463 2.4342C5.27751 0.861782 7.59897 -0.00223928 10 0.00120042C15.523 0.00120042 20 4.4782 20 10.0012C20 12.1372 19.33 14.1172 18.19 15.7412L15 10.0012H18C18.0001 8.43282 17.5392 6.899 16.6747 5.59046C15.8101 4.28191 14.5799 3.25636 13.1372 2.64132C11.6944 2.02629 10.1027 1.8489 8.55996 2.13122C7.0172 2.41353 5.59145 3.1431 4.46 4.2292L3.463 2.4342ZM16.537 17.5682C14.7225 19.1406 12.401 20.0046 10 20.0012C4.477 20.0012 0 15.5242 0 10.0012C0 7.8652 0.67 5.8852 1.81 4.2612L5 10.0012H2C1.99987 11.5696 2.46075 13.1034 3.32534 14.4119C4.18992 15.7205 5.42007 16.746 6.86282 17.3611C8.30557 17.9761 9.89729 18.1535 11.44 17.8712C12.9828 17.5889 14.4085 16.8593 15.54 15.7732L16.537 17.5682Z" fill="#424569"/>
</svg>
