<svg width="24" height="24" viewBox="0 0 24 24" fill="none" xmlns="http://www.w3.org/2000/svg">
<path d="M21 19V21H19V19H21ZM17 19V21H15V19H17ZM13 19V21H11V19H13ZM9 19V21H7V19H9ZM5 19V21H3V19H5ZM21 15V17H19V15H21ZM5 15V17H3V15H5ZM5 11V13H3V11H5ZM16 3C17.2885 3.00007 18.5272 3.49754 19.4578 4.38866C20.3884 5.27978 20.9391 6.49575 20.995 7.783L21 8V13H19V8C18.9977 7.2355 18.7045 6.50053 18.18 5.94429C17.6555 5.38806 16.939 5.05224 16.176 5.005L16 5H11V3H16ZM5 7V9H3V7H5ZM5 3V5H3V3H5ZM9 3V5H7V3H9Z" fill="#2D8395"/>
</svg>
