<svg width="20" height="20" viewBox="0 0 20 20" fill="none" xmlns="http://www.w3.org/2000/svg">
<path d="M1.70199 15.0009C1.27874 14.2701 0.949791 13.4885 0.722992 12.6749C1.21635 12.4241 1.6307 12.0417 1.92023 11.5701C2.20975 11.0984 2.36315 10.5558 2.36346 10.0024C2.36377 9.44892 2.21098 8.90617 1.92199 8.43417C1.63299 7.96217 1.21906 7.57931 0.725992 7.32795C1.17815 5.69371 2.03844 4.20128 3.22599 2.99095C3.6901 3.29295 4.22873 3.46062 4.78225 3.47538C5.33577 3.49015 5.88257 3.35143 6.36211 3.07459C6.84166 2.79776 7.23523 2.39361 7.49925 1.90689C7.76327 1.42017 7.88743 0.869879 7.85799 0.316948C9.50024 -0.106663 11.2233 -0.105631 12.865 0.319948C12.8361 0.872629 12.9607 1.42252 13.225 1.90879C13.4892 2.39506 13.8829 2.79875 14.3623 3.07522C14.8417 3.35168 15.3883 3.49013 15.9415 3.47526C16.4948 3.46039 17.0331 3.29277 17.497 2.99095C18.6834 4.20226 19.5444 5.69378 20 7.32695C19.5067 7.57785 19.0924 7.96032 18.803 8.43205C18.5135 8.90379 18.3602 9.44639 18.36 9.99984C18.3598 10.5533 18.5127 11.096 18.8018 11.5679C19.0909 12.0399 19.5049 12.4227 19.998 12.6739C19.5455 14.3083 18.6849 15.8007 17.497 17.0109C17.0329 16.7089 16.4943 16.5413 15.9407 16.5265C15.3872 16.5118 14.8404 16.6505 14.3609 16.9273C13.8813 17.2041 13.4878 17.6083 13.2237 18.095C12.9597 18.5817 12.8356 19.132 12.865 19.6849C11.2228 20.1089 9.49982 20.1082 7.85799 19.6829C7.88691 19.1303 7.76241 18.5805 7.49828 18.0942C7.23415 17.608 6.84068 17.2042 6.36137 16.9277C5.88207 16.6512 5.33561 16.5126 4.78244 16.5273C4.22927 16.5419 3.69094 16.7093 3.22699 17.0109C2.63548 16.4081 2.12374 15.7327 1.70199 15.0009ZM7.36099 15.1969C8.42618 15.8121 9.22725 16.7983 9.61099 17.9669C10.111 18.0136 10.6107 18.0143 11.11 17.9689C11.4933 16.7995 12.2944 15.8126 13.36 15.1969C14.4258 14.5814 15.6813 14.3805 16.886 14.6329C17.176 14.2236 17.4253 13.7909 17.634 13.3349C16.8144 12.4179 16.3615 11.2309 16.362 10.0009C16.362 8.74095 16.832 7.56395 17.635 6.66695C17.4262 6.21176 17.1751 5.77719 16.885 5.36895C15.6813 5.62059 14.427 5.41979 13.362 4.80495C12.2968 4.18981 11.4957 3.20361 11.112 2.03495C10.612 1.98761 10.112 1.98728 9.61199 2.03395C9.22846 3.20298 8.42737 4.18957 7.36199 4.80495C6.29614 5.42054 5.04068 5.62135 3.83599 5.36895C3.54533 5.77828 3.29633 6.21095 3.08899 6.66695C3.90899 7.58386 4.36222 8.77086 4.36199 10.0009C4.36199 11.2609 3.89099 12.4379 3.08899 13.3349C3.29781 13.7901 3.54892 14.2247 3.83899 14.6329C5.04272 14.3813 6.29698 14.5821 7.36199 15.1969M10.362 13.0009C9.56634 13.0009 8.80328 12.6849 8.24067 12.1223C7.67806 11.5597 7.36199 10.7966 7.36199 10.0009C7.36199 9.2053 7.67806 8.44224 8.24067 7.87963C8.80328 7.31702 9.56634 7.00095 10.362 7.00095C11.1576 7.00095 11.9207 7.31702 12.4833 7.87963C13.0459 8.44224 13.362 9.2053 13.362 10.0009C13.362 10.7966 13.0459 11.5597 12.4833 12.1223C11.9207 12.6849 11.1576 13.0009 10.362 13.0009ZM10.362 11.0009C10.6272 11.0009 10.8816 10.8956 11.0691 10.7081C11.2566 10.5205 11.362 10.2662 11.362 10.0009C11.362 9.73573 11.2566 9.48138 11.0691 9.29384C10.8816 9.1063 10.6272 9.00095 10.362 9.00095C10.0968 9.00095 9.84242 9.1063 9.65489 9.29384C9.46735 9.48138 9.36199 9.73573 9.36199 10.0009C9.36199 10.2662 9.46735 10.5205 9.65489 10.7081C9.84242 10.8956 10.0968 11.0009 10.362 11.0009Z" fill="#424569"/>
</svg>
