<svg width="24" height="24" viewBox="0 0 24 24" fill="none" xmlns="http://www.w3.org/2000/svg">
<path d="M12 3C12.6581 2.99976 13.3062 3.16192 13.8866 3.4721C14.4671 3.78227 14.962 4.23088 15.3276 4.77814C15.6932 5.32541 15.918 5.95442 15.9823 6.60941C16.0466 7.26439 15.9482 7.92512 15.696 8.533C14.8622 8.62159 14.0562 8.88397 13.3301 9.3032C12.6039 9.72244 11.9737 10.2892 11.48 10.967C10.5173 10.8408 9.63333 10.3687 8.99303 9.63877C8.35272 8.90886 7.99977 7.97096 8 7C8 5.93913 8.42142 4.92172 9.17157 4.17157C9.92172 3.42142 10.9391 3 12 3ZM17.764 8.672C18.0226 7.77826 18.0699 6.83662 17.902 5.92148C17.7342 5.00633 17.3558 4.14277 16.7967 3.39903C16.2377 2.65528 15.5134 2.05174 14.681 1.63608C13.8486 1.22042 12.9309 1.00404 12.0005 1.00404C11.0701 1.00404 10.1524 1.22042 9.32002 1.63608C8.48762 2.05174 7.76329 2.65528 7.20426 3.39903C6.64524 4.14277 6.26684 5.00633 6.09897 5.92148C5.9311 6.83662 5.97835 7.77826 6.237 8.672C5.33367 8.89483 4.49454 9.32469 3.78592 9.92761C3.0773 10.5305 2.5186 11.29 2.15397 12.146C1.78934 13.0019 1.62878 13.931 1.68496 14.8597C1.74115 15.7884 2.01254 16.6913 2.4777 17.4971C2.94287 18.3029 3.58905 18.9894 4.36519 19.5025C5.14132 20.0156 6.02615 20.3412 6.94976 20.4535C7.87336 20.5658 8.81043 20.4618 9.68691 20.1496C10.5634 19.8375 11.3553 19.3258 12 18.655C12.6447 19.3257 13.4366 19.8373 14.313 20.1494C15.1894 20.4615 16.1264 20.5655 17.0499 20.4532C17.9735 20.3409 18.8582 20.0154 19.6343 19.5023C20.4104 18.9893 21.0566 18.3029 21.5218 17.4972C21.9869 16.6915 22.2584 15.7887 22.3147 14.8601C22.371 13.9314 22.2105 13.0024 21.8461 12.1465C21.4816 11.2905 20.9231 10.531 20.2146 9.92802C19.5062 9.32501 18.6672 8.89502 17.764 8.672ZM13.154 16.934C13.494 16.1678 13.6697 15.3388 13.6697 14.5005C13.6697 13.6622 13.494 12.8332 13.154 12.067C13.6626 11.4032 14.3664 10.9155 15.1665 10.6724C15.9666 10.4292 16.8227 10.4429 17.6147 10.7114C18.4066 10.9799 19.0945 11.4898 19.5817 12.1695C20.0689 12.8491 20.3309 13.6643 20.3309 14.5005C20.3309 15.3367 20.0689 16.1519 19.5817 16.8315C19.0945 17.5112 18.4066 18.0211 17.6147 18.2896C16.8227 18.5581 15.9666 18.5718 15.1665 18.3286C14.3664 18.0855 13.6626 17.5978 13.154 16.934ZM11.364 12.967C11.6845 13.7394 11.7549 14.5928 11.5653 15.4073C11.3757 16.2218 10.9357 16.9564 10.3071 17.5079C9.67847 18.0594 8.89285 18.4 8.06064 18.482C7.22842 18.564 6.39143 18.3831 5.6673 17.9649C4.94317 17.5466 4.36829 16.912 4.02346 16.1501C3.67862 15.3883 3.58116 14.5376 3.74477 13.7175C3.90838 12.8974 4.32484 12.1492 4.93562 11.578C5.5464 11.0068 6.3208 10.6414 7.15 10.533C7.64354 11.2107 8.27362 11.7774 8.9996 12.1966C9.72559 12.6158 10.5304 12.8783 11.364 12.967Z" fill="#BC2FB0"/>
</svg>
